<?xml version="1.0" encoding="UTF-8" standalone="no"?>
<!DOCTYPE svg PUBLIC "-//W3C//DTD SVG 1.1//EN" "http://www.w3.org/Graphics/SVG/1.1/DTD/svg11.dtd">
<svg version="1.1" xmlns="http://www.w3.org/2000/svg" xmlns:xlink="http://www.w3.org/1999/xlink" preserveAspectRatio="xMidYMid meet" viewBox="0 0 512 512" width="512" height="512"><defs><path d="M0 0L512 0L512 512L0 512L0 0Z" id="a2MktfSXdx"></path><path d="M186.47 237.56C186.47 237.88 191.75 238.21 198.21 238.21C199 238.21 202.91 238.21 209.96 238.21C212.68 227.02 214.19 220.8 214.49 219.56C217.08 209.43 219.45 200.37 219.88 199.51C220.31 198.76 222.36 205.01 224.62 214.06C231.2 240.47 230.33 238.21 233.89 238.21C237.12 238.21 237.12 238.21 237.12 244.67C237.12 245.1 237.12 247.26 237.12 251.14L208.56 251.14L180 251.14L180 261.38L180 271.62L248.98 271.62L317.96 271.62L317.96 261.38L317.96 251.14L288.86 251.14L259.76 251.14L259.76 244.67L259.76 238.21L263.96 238.21L268.17 238.21C270.88 227.02 272.39 220.8 272.69 219.56C275.28 209.43 277.65 200.37 278.08 199.51C278.51 198.76 280.56 205.01 282.83 214.06C284.98 222.9 287.24 231.95 287.89 234.11C287.96 234.38 288.32 235.75 288.97 238.21C296.08 238.21 300.04 238.21 300.83 238.21C310.74 238.21 312.68 237.99 312.25 236.7C311.93 235.83 307.62 222.79 302.77 207.59C302.17 205.75 299.19 196.56 293.82 180L278.51 180L263.1 180C259.16 192.35 256.96 199.22 256.53 200.59C252.86 211.91 249.52 220.74 248.98 220.31C248.55 219.77 245.32 210.5 241.98 199.62C241.56 198.31 239.47 191.77 235.72 180L220.31 180L205.01 180L195.74 208.46C189.56 227.64 186.47 237.34 186.47 237.56Z" id="afmm7zOqF"></path><path d="M336.29 331.98L348.14 331.98L360 331.98L360 320.66L360 309.35L348.14 309.35L336.29 309.35L336.29 320.66L336.29 331.98Z" id="e1jAR9RsAd"></path><path d="M188.62 301.8C217.72 301.8 233.89 301.8 237.12 301.8C263.86 301.8 285.63 302.12 285.63 302.56C285.63 303.09 284.23 309.89 282.61 317.75C282.41 318.71 281.4 323.49 279.59 332.09L291.45 331.77L303.3 331.44C305.12 322.71 306.12 317.86 306.32 316.89C308.15 307.84 309.23 298.78 309.34 292.85C309.34 292.23 309.34 289.1 309.34 283.48L248.98 283.48L188.62 283.48L188.62 292.64L188.62 301.8Z" id="dv1GEp95H"></path></defs><g><g><g><use xlink:href="#a2MktfSXdx" opacity="1" fill="#ffffff" fill-opacity="1"></use></g><g><use xlink:href="#afmm7zOqF" opacity="1" fill="#3f51a5" fill-opacity="1"></use><g><use xlink:href="#afmm7zOqF" opacity="1" fill-opacity="0" stroke="#3f51a5" stroke-width="1" stroke-opacity="0"></use></g></g><g><use xlink:href="#e1jAR9RsAd" opacity="1" fill="#3f51a5" fill-opacity="1"></use><g><use xlink:href="#e1jAR9RsAd" opacity="1" fill-opacity="0" stroke="#3f51a5" stroke-width="1" stroke-opacity="0"></use></g></g><g><use xlink:href="#dv1GEp95H" opacity="1" fill="#3f51a5" fill-opacity="1"></use><g><use xlink:href="#dv1GEp95H" opacity="1" fill-opacity="0" stroke="#3f51a5" stroke-width="1" stroke-opacity="0"></use></g></g></g></g></svg>